<svg width="94" height="57" viewBox="0 0 94 57" fill="none" xmlns="http://www.w3.org/2000/svg">
<g clip-path="url(#clip0_2465_220)">
<path d="M81.7451 44.7404C74.7323 44.7404 69.4904 39.5971 69.5613 32.6218C69.5613 25.7874 75.0157 20.2917 81.7451 20.2917C88.1913 20.2917 94.0707 26.0693 94.1415 32.6218C94.0707 39.3152 88.5454 44.7404 81.7451 44.7404ZM81.4618 38.7516C84.9328 38.822 88.0496 36.0037 88.0496 32.6922C88.0496 29.6626 85.0036 26.5625 81.8868 26.4215C78.4867 26.2806 75.5115 29.1694 75.4407 32.6218C75.4407 36.0037 78.0616 38.6811 81.4618 38.7516Z" fill="white"/>
<path d="M56.1738 57C55.4654 53.7589 55.1821 51.2929 59.0781 49.8133C60.6365 49.2497 61.4865 46.7132 62.8324 44.8109C64.0366 44.8109 65.6658 44.8109 67.2951 44.8109C68.0743 51.152 64.1783 55.4499 56.1738 57Z" fill="#F4BC93"/>
<path d="M59.3606 37.3424C60.6907 37.3424 61.769 36.2698 61.769 34.9468C61.769 33.6238 60.6907 32.5513 59.3606 32.5513C58.0304 32.5513 56.9521 33.6238 56.9521 34.9468C56.9521 36.2698 58.0304 37.3424 59.3606 37.3424Z" fill="white"/>
<path d="M85.6409 37.3424C86.971 37.3424 88.0493 36.2698 88.0493 34.9468C88.0493 33.6238 86.971 32.5513 85.6409 32.5513C84.3107 32.5513 83.2324 33.6238 83.2324 34.9468C83.2324 36.2698 84.3107 37.3424 85.6409 37.3424Z" fill="white"/>
<path d="M62.8323 23.5327C61.6989 25.576 63.4698 22.335 64.4616 23.1805C66.5866 25.6465 67.4367 28.3238 67.7909 31.0717C68.7117 37.7651 63.8949 43.8245 57.5904 44.4586C50.4359 45.2336 44.4148 40.7948 43.494 33.89C42.5022 27.4783 47.5316 21.5599 54.6153 20.0803C56.882 19.5871 57.6613 19.5167 59.078 21.419C60.0697 22.8282 60.8489 21.5599 61.6281 22.9691C61.8406 23.3918 62.6198 23.11 62.8323 23.5327ZM61.9114 32.2694C61.8406 29.0284 58.8655 26.1397 55.607 26.2101C52.4902 26.2806 49.3734 29.3807 49.3025 32.4808C49.3025 35.7923 52.4194 38.6811 55.9612 38.5402C59.4322 38.3992 62.0531 35.5809 61.9114 32.2694Z" fill="white"/>
<path d="M60.2116 26.9851C63.4701 24.5896 66.7994 22.194 70.0579 19.7985C70.2704 19.6576 70.4121 19.4462 70.5538 19.3053C70.5538 19.2348 70.4829 19.2348 70.4829 19.1644C68.287 18.5303 67.7203 18.3893 65.5952 18.0371C64.1785 17.6848 62.9742 17.4029 61.77 17.4734C61.2742 17.4734 59.0782 19.4462 58.7241 19.728C57.449 20.5735 56.1739 21.4895 54.9697 22.4054" fill="white"/>
<path d="M28 15L28 37" stroke="#F4BC93" stroke-width="3" stroke-miterlimit="10" stroke-dasharray="3.09 3.09"/>
<path d="M27.9092 38.015V39.4562" stroke="#F4BC93" stroke-width="3" stroke-miterlimit="10"/>
<path d="M28.1225 36.7083C28.1225 38.9629 29.9642 40.7948 32.231 40.7948H37.4729V19.3053C37.4729 18.8826 37.6146 18.4598 37.9688 18.178L53.6236 2.8183L47.7442 1.40915C44.7691 0.775037 43.069 0.986409 41.5106 2.60693L27.2725 16.5575" stroke="white" stroke-width="3" stroke-miterlimit="10"/>
<path d="M27.5 36.7C27.5 38.9546 25.7135 40.8653 23.4468 40.8653H18.2049V19.3053C18.2049 18.8826 18.0632 18.4598 17.709 18.178L2.125 2.8183L8.00443 1.40915C10.9796 0.775037 12.6796 0.986409 14.238 2.60693L29 17" stroke="white" stroke-width="3" stroke-miterlimit="10"/>
</g>
<defs>
<clipPath id="clip0_2465_220">
<rect width="94" height="57" fill="white"/>
</clipPath>
</defs>
</svg>
